<mxfile modified="2024-03-01T15:51:34.839Z" host="Electron" agent="Mozilla/5.0 (Windows NT 10.0; Win64; x64) AppleWebKit/537.36 (KHTML, like Gecko) draw.io/23.1.5 Chrome/120.0.6099.109 Electron/28.1.0 Safari/537.36" etag="QIT6KSA9ZUximDWmGozS" version="23.1.5" type="device">
  <diagram id="Ht1M8jgEwFfnCIfOTk4-" name="Page-1">
    <mxGraphModel dx="2738" dy="344" grid="1" gridSize="10" guides="1" tooltips="1" connect="1" arrows="1" fold="1" page="1" pageScale="1" pageWidth="1169" pageHeight="827" math="0" shadow="0">
      <root>
        <mxCell id="0" />
        <mxCell id="1" parent="0" />
        <mxCell id="DzAKDVndOgFaBy3aLBQm-3" value="&lt;font size=&quot;1&quot; style=&quot;&quot;&gt;&lt;b style=&quot;font-size: 20px;&quot;&gt;AWS Cloud&lt;/b&gt;&lt;/font&gt;" style="points=[[0,0],[0.25,0],[0.5,0],[0.75,0],[1,0],[1,0.25],[1,0.5],[1,0.75],[1,1],[0.75,1],[0.5,1],[0.25,1],[0,1],[0,0.75],[0,0.5],[0,0.25]];outlineConnect=0;gradientColor=none;html=1;whiteSpace=wrap;fontSize=12;fontStyle=0;container=1;pointerEvents=0;collapsible=0;recursiveResize=0;shape=mxgraph.aws4.group;grIcon=mxgraph.aws4.group_aws_cloud_alt;strokeColor=#232F3E;fillColor=default;verticalAlign=top;align=left;spacingLeft=30;fontColor=#232F3E;dashed=0;fillStyle=solid;" vertex="1" parent="1">
          <mxGeometry x="30.5" y="1001" width="1089.5" height="930" as="geometry" />
        </mxCell>
        <mxCell id="DzAKDVndOgFaBy3aLBQm-4" value="&lt;font size=&quot;1&quot; style=&quot;&quot;&gt;&lt;b style=&quot;font-size: 20px;&quot;&gt;Region&lt;/b&gt;&lt;/font&gt;" style="points=[[0,0],[0.25,0],[0.5,0],[0.75,0],[1,0],[1,0.25],[1,0.5],[1,0.75],[1,1],[0.75,1],[0.5,1],[0.25,1],[0,1],[0,0.75],[0,0.5],[0,0.25]];outlineConnect=0;gradientColor=none;html=1;whiteSpace=wrap;fontSize=12;fontStyle=0;container=1;pointerEvents=0;collapsible=0;recursiveResize=0;shape=mxgraph.aws4.group;grIcon=mxgraph.aws4.group_region;strokeColor=#00A4A6;fillColor=none;verticalAlign=top;align=left;spacingLeft=30;fontColor=#147EBA;dashed=1;" vertex="1" parent="DzAKDVndOgFaBy3aLBQm-3">
          <mxGeometry x="9.5" y="38" width="1070.5" height="882" as="geometry" />
        </mxCell>
        <mxCell id="DzAKDVndOgFaBy3aLBQm-7" value="&lt;font style=&quot;font-size: 20px;&quot;&gt;&lt;b&gt;Availability Zone 1&lt;/b&gt;&lt;/font&gt;" style="fillColor=none;strokeColor=#147EBA;dashed=1;verticalAlign=top;fontStyle=0;fontColor=#147EBA;whiteSpace=wrap;html=1;" vertex="1" parent="DzAKDVndOgFaBy3aLBQm-4">
          <mxGeometry x="35.25" y="40" width="490" height="680" as="geometry" />
        </mxCell>
        <mxCell id="DzAKDVndOgFaBy3aLBQm-9" value="&lt;font style=&quot;font-size: 20px;&quot;&gt;&lt;b&gt;Availability Zone 2&lt;/b&gt;&lt;/font&gt;" style="fillColor=none;strokeColor=#147EBA;dashed=1;verticalAlign=top;fontStyle=0;fontColor=#147EBA;whiteSpace=wrap;html=1;" vertex="1" parent="DzAKDVndOgFaBy3aLBQm-4">
          <mxGeometry x="545.25" y="40" width="490" height="680" as="geometry" />
        </mxCell>
        <mxCell id="DzAKDVndOgFaBy3aLBQm-10" value="&lt;font style=&quot;font-size: 20px;&quot;&gt;&lt;b&gt;VPC&lt;/b&gt;&lt;/font&gt;" style="points=[[0,0],[0.25,0],[0.5,0],[0.75,0],[1,0],[1,0.25],[1,0.5],[1,0.75],[1,1],[0.75,1],[0.5,1],[0.25,1],[0,1],[0,0.75],[0,0.5],[0,0.25]];outlineConnect=0;gradientColor=none;html=1;whiteSpace=wrap;fontSize=12;fontStyle=0;container=1;pointerEvents=0;collapsible=0;recursiveResize=0;shape=mxgraph.aws4.group;grIcon=mxgraph.aws4.group_vpc2;strokeColor=#8C4FFF;fillColor=none;verticalAlign=top;align=left;spacingLeft=30;fontColor=#AAB7B8;dashed=0;" vertex="1" parent="DzAKDVndOgFaBy3aLBQm-4">
          <mxGeometry x="50" y="80" width="970" height="620" as="geometry" />
        </mxCell>
        <mxCell id="DzAKDVndOgFaBy3aLBQm-11" value="&lt;font style=&quot;font-size: 20px;&quot;&gt;Public subnet 1&lt;/font&gt;" style="points=[[0,0],[0.25,0],[0.5,0],[0.75,0],[1,0],[1,0.25],[1,0.5],[1,0.75],[1,1],[0.75,1],[0.5,1],[0.25,1],[0,1],[0,0.75],[0,0.5],[0,0.25]];outlineConnect=0;gradientColor=none;html=1;whiteSpace=wrap;fontSize=12;fontStyle=0;container=1;pointerEvents=0;collapsible=0;recursiveResize=0;shape=mxgraph.aws4.group;grIcon=mxgraph.aws4.group_security_group;grStroke=0;strokeColor=#7AA116;fillColor=#F2F6E8;verticalAlign=top;align=left;spacingLeft=30;fontColor=#248814;dashed=0;" vertex="1" parent="DzAKDVndOgFaBy3aLBQm-4">
          <mxGeometry x="59" y="120" width="451" height="270" as="geometry" />
        </mxCell>
        <mxCell id="DzAKDVndOgFaBy3aLBQm-12" value="&lt;font style=&quot;font-size: 20px;&quot;&gt;&lt;b&gt;Private subnet 1&lt;/b&gt;&lt;/font&gt;" style="points=[[0,0],[0.25,0],[0.5,0],[0.75,0],[1,0],[1,0.25],[1,0.5],[1,0.75],[1,1],[0.75,1],[0.5,1],[0.25,1],[0,1],[0,0.75],[0,0.5],[0,0.25]];outlineConnect=0;gradientColor=none;html=1;whiteSpace=wrap;fontSize=12;fontStyle=0;container=1;pointerEvents=0;collapsible=0;recursiveResize=0;shape=mxgraph.aws4.group;grIcon=mxgraph.aws4.group_security_group;grStroke=0;strokeColor=#00A4A6;fillColor=#E6F6F7;verticalAlign=top;align=left;spacingLeft=30;fontColor=#147EBA;dashed=0;" vertex="1" parent="DzAKDVndOgFaBy3aLBQm-4">
          <mxGeometry x="59" y="400" width="451" height="270" as="geometry" />
        </mxCell>
        <mxCell id="DzAKDVndOgFaBy3aLBQm-14" value="&lt;font style=&quot;font-size: 20px;&quot;&gt;Public subnet 2&lt;/font&gt;" style="points=[[0,0],[0.25,0],[0.5,0],[0.75,0],[1,0],[1,0.25],[1,0.5],[1,0.75],[1,1],[0.75,1],[0.5,1],[0.25,1],[0,1],[0,0.75],[0,0.5],[0,0.25]];outlineConnect=0;gradientColor=none;html=1;whiteSpace=wrap;fontSize=12;fontStyle=0;container=1;pointerEvents=0;collapsible=0;recursiveResize=0;shape=mxgraph.aws4.group;grIcon=mxgraph.aws4.group_security_group;grStroke=0;strokeColor=#7AA116;fillColor=#F2F6E8;verticalAlign=top;align=left;spacingLeft=30;fontColor=#248814;dashed=0;" vertex="1" parent="DzAKDVndOgFaBy3aLBQm-4">
          <mxGeometry x="560" y="120" width="451" height="270" as="geometry" />
        </mxCell>
        <mxCell id="DzAKDVndOgFaBy3aLBQm-15" value="&lt;font style=&quot;font-size: 20px;&quot;&gt;&lt;b&gt;Private subnet 2&lt;/b&gt;&lt;/font&gt;" style="points=[[0,0],[0.25,0],[0.5,0],[0.75,0],[1,0],[1,0.25],[1,0.5],[1,0.75],[1,1],[0.75,1],[0.5,1],[0.25,1],[0,1],[0,0.75],[0,0.5],[0,0.25]];outlineConnect=0;gradientColor=none;html=1;whiteSpace=wrap;fontSize=12;fontStyle=0;container=1;pointerEvents=0;collapsible=0;recursiveResize=0;shape=mxgraph.aws4.group;grIcon=mxgraph.aws4.group_security_group;grStroke=0;strokeColor=#00A4A6;fillColor=#E6F6F7;verticalAlign=top;align=left;spacingLeft=30;fontColor=#147EBA;dashed=0;" vertex="1" parent="DzAKDVndOgFaBy3aLBQm-4">
          <mxGeometry x="560" y="400" width="451" height="270" as="geometry" />
        </mxCell>
        <mxCell id="DzAKDVndOgFaBy3aLBQm-19" value="&lt;font style=&quot;font-size: 20px;&quot;&gt;&lt;b&gt;ECS security group&lt;/b&gt;&lt;/font&gt;" style="fillColor=none;strokeColor=#DD3522;verticalAlign=top;fontStyle=0;fontColor=#DD3522;whiteSpace=wrap;html=1;" vertex="1" parent="DzAKDVndOgFaBy3aLBQm-4">
          <mxGeometry x="70.25" y="270" width="930" height="110" as="geometry" />
        </mxCell>
        <mxCell id="DzAKDVndOgFaBy3aLBQm-20" value="&lt;font style=&quot;font-size: 20px;&quot;&gt;&lt;b&gt;RDS database security group&lt;/b&gt;&lt;/font&gt;" style="fillColor=none;strokeColor=#DD3522;verticalAlign=top;fontStyle=0;fontColor=#DD3522;whiteSpace=wrap;html=1;" vertex="1" parent="DzAKDVndOgFaBy3aLBQm-4">
          <mxGeometry x="70.25" y="445" width="930" height="145" as="geometry" />
        </mxCell>
        <mxCell id="DzAKDVndOgFaBy3aLBQm-16" value="&lt;font style=&quot;font-size: 20px;&quot;&gt;&lt;b&gt;Application load balancer security group&lt;/b&gt;&lt;/font&gt;" style="fillColor=none;strokeColor=#DD3522;verticalAlign=top;fontStyle=0;fontColor=#DD3522;whiteSpace=wrap;html=1;" vertex="1" parent="DzAKDVndOgFaBy3aLBQm-4">
          <mxGeometry x="70" y="162" width="930" height="98" as="geometry" />
        </mxCell>
        <mxCell id="DzAKDVndOgFaBy3aLBQm-29" value="&lt;font style=&quot;font-size: 14px;&quot;&gt;&lt;b&gt;RDS MySQL&lt;/b&gt;&lt;/font&gt;" style="sketch=0;points=[[0,0,0],[0.25,0,0],[0.5,0,0],[0.75,0,0],[1,0,0],[0,1,0],[0.25,1,0],[0.5,1,0],[0.75,1,0],[1,1,0],[0,0.25,0],[0,0.5,0],[0,0.75,0],[1,0.25,0],[1,0.5,0],[1,0.75,0]];outlineConnect=0;fontColor=#232F3E;fillColor=#C925D1;strokeColor=#ffffff;dashed=0;verticalLabelPosition=bottom;verticalAlign=top;align=center;html=1;fontSize=12;fontStyle=0;aspect=fixed;shape=mxgraph.aws4.resourceIcon;resIcon=mxgraph.aws4.rds;" vertex="1" parent="DzAKDVndOgFaBy3aLBQm-4">
          <mxGeometry x="330" y="485" width="78" height="78" as="geometry" />
        </mxCell>
        <mxCell id="DzAKDVndOgFaBy3aLBQm-31" value="&lt;font style=&quot;font-size: 14px;&quot;&gt;&lt;b&gt;Load balancer&lt;/b&gt;&lt;/font&gt;" style="sketch=0;points=[[0,0,0],[0.25,0,0],[0.5,0,0],[0.75,0,0],[1,0,0],[0,1,0],[0.25,1,0],[0.5,1,0],[0.75,1,0],[1,1,0],[0,0.25,0],[0,0.5,0],[0,0.75,0],[1,0.25,0],[1,0.5,0],[1,0.75,0]];outlineConnect=0;fontColor=#232F3E;fillColor=#8C4FFF;strokeColor=#ffffff;dashed=0;verticalLabelPosition=bottom;verticalAlign=top;align=center;html=1;fontSize=12;fontStyle=0;aspect=fixed;shape=mxgraph.aws4.resourceIcon;resIcon=mxgraph.aws4.elastic_load_balancing;" vertex="1" parent="DzAKDVndOgFaBy3aLBQm-4">
          <mxGeometry x="260.25" y="168" width="62" height="62" as="geometry" />
        </mxCell>
        <mxCell id="DzAKDVndOgFaBy3aLBQm-32" value="&lt;font style=&quot;font-size: 14px;&quot;&gt;&lt;b&gt;ECS&lt;/b&gt;&lt;/font&gt;" style="sketch=0;points=[[0,0,0],[0.25,0,0],[0.5,0,0],[0.75,0,0],[1,0,0],[0,1,0],[0.25,1,0],[0.5,1,0],[0.75,1,0],[1,1,0],[0,0.25,0],[0,0.5,0],[0,0.75,0],[1,0.25,0],[1,0.5,0],[1,0.75,0]];outlineConnect=0;fontColor=#232F3E;fillColor=#ED7100;strokeColor=#ffffff;dashed=0;verticalLabelPosition=bottom;verticalAlign=top;align=center;html=1;fontSize=12;fontStyle=0;aspect=fixed;shape=mxgraph.aws4.resourceIcon;resIcon=mxgraph.aws4.ecs;" vertex="1" parent="DzAKDVndOgFaBy3aLBQm-4">
          <mxGeometry x="260.25" y="288" width="68" height="68" as="geometry" />
        </mxCell>
        <mxCell id="DzAKDVndOgFaBy3aLBQm-34" value="" style="edgeStyle=orthogonalEdgeStyle;html=1;endArrow=block;elbow=vertical;startArrow=block;startFill=1;endFill=1;strokeColor=#545B64;rounded=0;exitX=0.75;exitY=1;exitDx=0;exitDy=0;exitPerimeter=0;entryX=0.5;entryY=0;entryDx=0;entryDy=0;entryPerimeter=0;" edge="1" parent="DzAKDVndOgFaBy3aLBQm-4" source="DzAKDVndOgFaBy3aLBQm-32" target="DzAKDVndOgFaBy3aLBQm-29">
          <mxGeometry width="100" relative="1" as="geometry">
            <mxPoint x="380" y="332" as="sourcePoint" />
            <mxPoint x="480" y="332" as="targetPoint" />
          </mxGeometry>
        </mxCell>
        <mxCell id="DzAKDVndOgFaBy3aLBQm-38" value="&lt;font style=&quot;font-size: 14px;&quot;&gt;&lt;b&gt;IAM role&lt;/b&gt;&lt;/font&gt;" style="sketch=0;outlineConnect=0;fontColor=#232F3E;gradientColor=none;fillColor=#DD344C;strokeColor=none;dashed=0;verticalLabelPosition=bottom;verticalAlign=top;align=center;html=1;fontSize=12;fontStyle=0;aspect=fixed;pointerEvents=1;shape=mxgraph.aws4.role;" vertex="1" parent="DzAKDVndOgFaBy3aLBQm-4">
          <mxGeometry x="896.98" y="752" width="138.27" height="78" as="geometry" />
        </mxCell>
        <mxCell id="DzAKDVndOgFaBy3aLBQm-40" value="&lt;font style=&quot;font-size: 14px;&quot;&gt;&lt;b&gt;Secrets manager&lt;/b&gt;&lt;/font&gt;" style="sketch=0;points=[[0,0,0],[0.25,0,0],[0.5,0,0],[0.75,0,0],[1,0,0],[0,1,0],[0.25,1,0],[0.5,1,0],[0.75,1,0],[1,1,0],[0,0.25,0],[0,0.5,0],[0,0.75,0],[1,0.25,0],[1,0.5,0],[1,0.75,0]];outlineConnect=0;fontColor=#232F3E;fillColor=#DD344C;strokeColor=#ffffff;dashed=0;verticalLabelPosition=bottom;verticalAlign=top;align=center;html=1;fontSize=12;fontStyle=0;aspect=fixed;shape=mxgraph.aws4.resourceIcon;resIcon=mxgraph.aws4.secrets_manager;" vertex="1" parent="DzAKDVndOgFaBy3aLBQm-4">
          <mxGeometry x="671" y="732" width="98" height="98" as="geometry" />
        </mxCell>
        <mxCell id="DzAKDVndOgFaBy3aLBQm-41" value="&lt;font style=&quot;font-size: 14px;&quot;&gt;&lt;b&gt;CloudWatch&lt;br&gt;Logs&lt;/b&gt;&lt;/font&gt;" style="sketch=0;points=[[0,0,0],[0.25,0,0],[0.5,0,0],[0.75,0,0],[1,0,0],[0,1,0],[0.25,1,0],[0.5,1,0],[0.75,1,0],[1,1,0],[0,0.25,0],[0,0.5,0],[0,0.75,0],[1,0.25,0],[1,0.5,0],[1,0.75,0]];points=[[0,0,0],[0.25,0,0],[0.5,0,0],[0.75,0,0],[1,0,0],[0,1,0],[0.25,1,0],[0.5,1,0],[0.75,1,0],[1,1,0],[0,0.25,0],[0,0.5,0],[0,0.75,0],[1,0.25,0],[1,0.5,0],[1,0.75,0]];outlineConnect=0;fontColor=#232F3E;fillColor=#E7157B;strokeColor=#ffffff;dashed=0;verticalLabelPosition=bottom;verticalAlign=top;align=center;html=1;fontSize=12;fontStyle=0;aspect=fixed;shape=mxgraph.aws4.resourceIcon;resIcon=mxgraph.aws4.cloudwatch_2;" vertex="1" parent="DzAKDVndOgFaBy3aLBQm-4">
          <mxGeometry x="787" y="732" width="98" height="98" as="geometry" />
        </mxCell>
        <mxCell id="DzAKDVndOgFaBy3aLBQm-42" value="" style="edgeStyle=orthogonalEdgeStyle;html=1;endArrow=none;elbow=vertical;startArrow=block;startFill=1;strokeColor=#545B64;rounded=0;exitX=1;exitY=0.25;exitDx=0;exitDy=0;exitPerimeter=0;" edge="1" parent="DzAKDVndOgFaBy3aLBQm-4" source="DzAKDVndOgFaBy3aLBQm-32" target="DzAKDVndOgFaBy3aLBQm-38">
          <mxGeometry width="100" relative="1" as="geometry">
            <mxPoint x="760" y="772" as="sourcePoint" />
            <mxPoint x="860" y="772" as="targetPoint" />
          </mxGeometry>
        </mxCell>
        <mxCell id="DzAKDVndOgFaBy3aLBQm-45" value="" style="edgeStyle=orthogonalEdgeStyle;html=1;endArrow=block;elbow=vertical;startArrow=block;startFill=1;endFill=1;strokeColor=#545B64;rounded=0;entryX=0;entryY=0.5;entryDx=0;entryDy=0;entryPerimeter=0;exitX=0;exitY=0.25;exitDx=0;exitDy=0;exitPerimeter=0;" edge="1" parent="DzAKDVndOgFaBy3aLBQm-4" source="DzAKDVndOgFaBy3aLBQm-32" target="DzAKDVndOgFaBy3aLBQm-31">
          <mxGeometry width="100" relative="1" as="geometry">
            <mxPoint x="130" y="212" as="sourcePoint" />
            <mxPoint x="230" y="212" as="targetPoint" />
            <Array as="points">
              <mxPoint x="220" y="305" />
              <mxPoint x="220" y="199" />
            </Array>
          </mxGeometry>
        </mxCell>
        <mxCell id="DzAKDVndOgFaBy3aLBQm-46" value="" style="edgeStyle=orthogonalEdgeStyle;html=1;endArrow=block;elbow=vertical;startArrow=block;startFill=1;endFill=1;strokeColor=#545B64;rounded=0;entryX=0.5;entryY=0;entryDx=0;entryDy=0;entryPerimeter=0;exitX=1;exitY=0.5;exitDx=0;exitDy=0;exitPerimeter=0;" edge="1" parent="DzAKDVndOgFaBy3aLBQm-4" source="DzAKDVndOgFaBy3aLBQm-32" target="DzAKDVndOgFaBy3aLBQm-41">
          <mxGeometry width="100" relative="1" as="geometry">
            <mxPoint x="330" y="812" as="sourcePoint" />
            <mxPoint x="430" y="812" as="targetPoint" />
          </mxGeometry>
        </mxCell>
        <mxCell id="DzAKDVndOgFaBy3aLBQm-47" value="" style="edgeStyle=orthogonalEdgeStyle;html=1;endArrow=none;elbow=vertical;startArrow=block;startFill=1;strokeColor=#545B64;rounded=0;entryX=1;entryY=0.5;entryDx=0;entryDy=0;entryPerimeter=0;exitX=1;exitY=0.75;exitDx=0;exitDy=0;exitPerimeter=0;" edge="1" parent="DzAKDVndOgFaBy3aLBQm-4" source="DzAKDVndOgFaBy3aLBQm-32" target="DzAKDVndOgFaBy3aLBQm-40">
          <mxGeometry width="100" relative="1" as="geometry">
            <mxPoint x="440" y="812" as="sourcePoint" />
            <mxPoint x="540" y="812" as="targetPoint" />
          </mxGeometry>
        </mxCell>
        <mxCell id="DzAKDVndOgFaBy3aLBQm-35" value="&lt;font style=&quot;font-size: 14px;&quot;&gt;&lt;b&gt;GitHub&lt;/b&gt;&lt;/font&gt;" style="sketch=0;points=[[0,0,0],[0.25,0,0],[0.5,0,0],[0.75,0,0],[1,0,0],[0,1,0],[0.25,1,0],[0.5,1,0],[0.75,1,0],[1,1,0],[0,0.25,0],[0,0.5,0],[0,0.75,0],[1,0.25,0],[1,0.5,0],[1,0.75,0]];outlineConnect=0;fontColor=#232F3E;fillColor=#ED7100;strokeColor=#ffffff;dashed=0;verticalLabelPosition=bottom;verticalAlign=top;align=center;html=1;fontSize=12;fontStyle=0;aspect=fixed;shape=mxgraph.aws4.resourceIcon;resIcon=mxgraph.aws4.ecr;" vertex="1" parent="1">
          <mxGeometry x="-80" y="1338" width="78" height="78" as="geometry" />
        </mxCell>
        <mxCell id="DzAKDVndOgFaBy3aLBQm-37" value="" style="edgeStyle=orthogonalEdgeStyle;html=1;endArrow=block;elbow=vertical;startArrow=block;startFill=1;endFill=1;strokeColor=#545B64;rounded=0;entryX=0;entryY=0.75;entryDx=0;entryDy=0;entryPerimeter=0;exitX=1;exitY=0.5;exitDx=0;exitDy=0;exitPerimeter=0;" edge="1" parent="1" source="DzAKDVndOgFaBy3aLBQm-35" target="DzAKDVndOgFaBy3aLBQm-32">
          <mxGeometry width="100" relative="1" as="geometry">
            <mxPoint x="-150" y="1521" as="sourcePoint" />
            <mxPoint x="-50" y="1521" as="targetPoint" />
          </mxGeometry>
        </mxCell>
        <mxCell id="DzAKDVndOgFaBy3aLBQm-53" value="&lt;font style=&quot;font-size: 14px;&quot;&gt;&lt;b&gt;User&lt;/b&gt;&lt;/font&gt;" style="points=[[0.35,0,0],[0.98,0.51,0],[1,0.71,0],[0.67,1,0],[0,0.795,0],[0,0.65,0]];verticalLabelPosition=bottom;sketch=0;html=1;verticalAlign=top;aspect=fixed;align=center;pointerEvents=1;shape=mxgraph.cisco19.user;fillColor=#005073;strokeColor=none;" vertex="1" parent="1">
          <mxGeometry x="620" y="860" width="100" height="100" as="geometry" />
        </mxCell>
        <mxCell id="DzAKDVndOgFaBy3aLBQm-54" value="" style="edgeStyle=orthogonalEdgeStyle;html=1;endArrow=block;elbow=vertical;startArrow=block;startFill=1;endFill=1;strokeColor=#545B64;rounded=0;entryX=0;entryY=0.65;entryDx=0;entryDy=0;entryPerimeter=0;exitX=0.5;exitY=0;exitDx=0;exitDy=0;exitPerimeter=0;" edge="1" parent="1" source="DzAKDVndOgFaBy3aLBQm-31" target="DzAKDVndOgFaBy3aLBQm-53">
          <mxGeometry width="100" relative="1" as="geometry">
            <mxPoint x="500" y="870" as="sourcePoint" />
            <mxPoint x="600" y="870" as="targetPoint" />
            <Array as="points">
              <mxPoint x="331" y="1140" />
              <mxPoint x="540" y="1140" />
              <mxPoint x="540" y="925" />
            </Array>
          </mxGeometry>
        </mxCell>
      </root>
    </mxGraphModel>
  </diagram>
</mxfile>
